<svg height="34" viewBox="0 0 150 34" width="150" xmlns="http://www.w3.org/2000/svg"><path d="m142.578133 10.9030913c0-3.28261145-1.768659-3.76070085-2.711145-3.9896532l-.539949-.54671744h10.672961l-.540519.54671744c-.941916.22895235-2.710575.70704175-2.710575 3.9896532v18.146636c0 3.2826115 1.768659 3.7601242 2.710575 3.9896532l.540519.5461408h-10.672961l.539949-.5461408c.942486-.229529 2.711145-.7070417 2.711145-3.9896532zm-132.2860439 4.8496375c6.661264 2.0617245 10.053189 5.4233447 10.053189 9.8974311 0 6.4100889-5.5819374 8.329367-10.90444873 8.329367-2.99736925 0-5.11325992-.9457981-6.19771804-1.4607967-1.89067461-.8973548-2.84228375 1.0115426-2.84228375 1.0115426v-8.0675424l.71613007.6730161c1.25892929 3.1943754 3.68556112 6.6107827 7.97321886 6.6107827 3.20205929 0 6.14469249-2.2537677 6.14469249-5.3518332 0-3.5663509-3.3639868-5.0219572-7.23998378-6.2912875-5.10983892-1.6736013-7.99488522-5.544453-7.99488522-9.5589046 0-5.69901026 4.10520422-8.82591106 9.88670016-8.82591106 2.98539574 0 4.17932594 1.33565146 5.75355774.76528907 2.3228614-.84199099 2.7054436-3.48388191 2.7054436-3.48388191v12.4787679l-.7218317-.6782065c-.9196798-4.33394675-3.8988037-7.77399899-7.77708134-7.37607174-3.64507925.37370559-5.57851641 2.83854772-5.57851641 5.91066144 0 3.1937987 2.98596591 4.4775466 6.02381705 5.4175777zm46.9956367-4.8485417v10.5502624c3.702096-.0859292 8.5376844-1.0357642 8.5376844-7.3847223 0-7.93547679-8.1009363-6.46199255-8.1009363-6.46199255s-.4367481.01326424-.4367481 3.29645245zm12.8304737 3.2941455c0 8.2445913-8.4829484 8.215756-12.8304737 8.196148v6.6563425c0 3.2831881 1.7686588 3.7607008 2.7105751 3.9890765l.5405186.5467174h-10.6729608l.5405185-.5467174c.9424865-.2283757 2.7105751-.7058884 2.7105751-3.9890765v-18.146636c0-3.28318821-1.7680886-3.76070091-2.7105751-3.98965326l-.5405185-.54614073h10.6729608c1.9898837 0 9.57938.33448957 9.57938 7.82993949zm-24.1140837-7.83005483h.9327937l-.5405186.54614073c-.9419163.22952905-3.1096922.70704175-3.1096922 3.9896532v13.3818897c0 6.9077864-2.6643916 9.7140386-8.6990418 9.7140386-6.4274954 0-9.7435881-2.4590751-9.7435881-9.7140386v-13.3818897c0-3.28261145-1.7686589-3.76012415-2.7111453-3.9896532l-.5399484-.54614073h10.6723906l-.5399484.54614073c-.9424864.22952905-2.7111453.70704175-2.7111453 3.9896532v13.3818897c0 3.9729288.1134633 8.8466725 5.5733849 8.8466725.2981975 0 .5815706-.0115341.8558211-.029412 4.2625704-.4169585 5.3356251-4.0663551 5.3356251-8.8172605v-13.3818897c0-3.28261145-2.6740844-3.76012415-3.6160007-3.9896532l-.5405185-.54614073h.9327936zm30.5058866 14.87809623h5.9194765l-2.9700013-8.8766613-3.2972772 8.8766613zm7.1504676 11.7936409c.8666542-.2283756 2.475096-.7058883 1.3803749-3.9890765l-2.1603637-6.4562254h-6.8625331-.3569247l-2.3986936 6.4579555c-1.2760343 3.2826115.705867 3.7601242 1.5594074 3.9896533l.3278462.545564h-.6220525-8.7594795-.6220525l.7526208-.545564c1.0314326-.2295291 3.8908213-.7070418 5.1668556-3.9896533l7.1818268-19.35656551-.0017105-.00115341c.2942063-.81200227-.1590767-1.63034831-.1590767-1.63034831 2.4243512-1.97464189 2.4853591-5.55252691 2.4853591-5.55252691l8.6391742 26.53886404c1.0952913 3.2831882 3.0230267 3.7607009 4.0419156 3.9890765l.7224019.5467175h-10.6729608zm35.963413-11.7936409h5.937152l-2.978554-8.9008829-3.3064 8.9008829zm7.167573 11.7936409c.866654-.2283756 2.475096-.7058883 1.380375-3.9890765l-2.159794-6.4562254h-6.880208-.356925l-2.398693 6.4579555c-1.276035 3.2826115.705867 3.7601242 1.559407 3.9896533l.327846.545564h-4.175905l-.00057.0005767-12.368638.0017301s-6.3106111-.0046136-6.2776709-.0046136c1.777911 0 1.8007177-1.2087762 1.8007177-1.5346151v-23.89408965c1.5166449 0 3.8144192-3.29356888 4.4763832-5.64479989h.00057l-.00114 26.53713394c0 2.2272392 2.586849 3.2485858 4.513444 3.2485858 4.50147 0 7.201782-1.4879019 9.147763-6.4435379 1.688265-4.5634759 4.724976-12.767121 6.00044-16.15815321l-.00171-.00115341c.293636-.81200227-.159077-1.63034831-.159077-1.63034831 2.423781-1.97464189 2.484789-5.55252691 2.484789-5.55252691l8.639744 26.53886404c1.095292 3.2831882 3.022457 3.7607009 4.041346 3.9890765l.722972.5467175h-10.673531z" fill="#c1873d" fill-rule="evenodd"/></svg>